# xmcd
#
# Track frame offsets:
#	150
#	15591
#	33600
#	56562
#	76039
#	92728
#	112710
#	134091
#	141074
#	159036
#	181889
#	205995
#	224183
#	243290
#	267539
#	283299
#	295711
#	312641
#	325559
#
# Disc length: 4660 seconds
#
# Revision: 0
# Processed by: cddbd v1.5.1PL0 Copyright (c) Steve Scherf et al.
# Submitted via: dBpowerAMP V4.0
#
DISCID=17123213
DTITLE=The Notorious B.I.G. - Ready To Die (Re-Mastered)
DYEAR=1994
DGENRE=Rap
TTITLE0=Intro
TTITLE1=Things Done Changed
TTITLE2=Gimme The Loot
TTITLE3=Machine Gun Funk
TTITLE4=Warning
TTITLE5=Ready To Die
TTITLE6=One More Chance
TTITLE7=Fuck Me (Interlude)
TTITLE8=The What (feat. Method Man)
TTITLE9=Juicy
TTITLE10=Everyday Struggle
TTITLE11=Me and My Bitch
TTITLE12=Big Poppa
TTITLE13=Respect
TTITLE14=Friend Of Mine
TTITLE15=Unbelievable
TTITLE16=Suicidal Thoughts
TTITLE17=Who Shot Ya
TTITLE18=Just Playing (Dreams)
EXTD=
EXTT0=
EXTT1=
EXTT2=
EXTT3=
EXTT4=
EXTT5=
EXTT6=
EXTT7=
EXTT8=
EXTT9=
EXTT10=
EXTT11=
EXTT12=
EXTT13=
EXTT14=
EXTT15=
EXTT16=
EXTT17=
EXTT18=
PLAYORDER=
